<svg xmlns="http://www.w3.org/2000/svg" viewBox="0 0 416.95 585.98"><defs><style>.cls-1{fill:#de0006;stroke:#fff;stroke-miterlimit:10;stroke-width:1.28px;}</style></defs><g id="Capa_2" data-name="Capa 2"><g id="Capa_1-2" data-name="Capa 1"><polygon id="SLVSANSANTAANA" class="cls-1" points="127.96 540.5 124.69 543.77 124.69 561.12 114.54 561.12 114.54 571.92 104.39 564.06 106.03 552.28 101.12 547.37 89.67 544.75 82.47 549.99 79.19 546.72 80.83 539.19 97.19 526.1 96.87 513.66 99.81 510.06 99.48 504.17 93.27 504.17 89.99 500.24 91.3 482.24 87.05 460.31 88.36 453.44 108.65 438.38 115.85 432.49 117.16 426.27 121.41 419.07 118.47 412.85 110.94 410.56 106.68 403.36 99.81 398.12 101.45 384.05 106.03 381.1 106.36 375.21 109.3 372.92 108.97 364.41 105.05 359.83 105.38 355.25 107.99 352.63 107.67 346.74 111.27 340.52 122.07 333.65 127.96 333.65 131.56 331.36 131.56 325.79 138.1 324.48 140.72 321.54 140.72 310.41 149.23 310.41 149.23 302.88 153.49 296.33 153.49 288.48 161.34 288.48 161.34 298.95 180 298.3 163.31 311.06 164.94 331.03 174.76 329.72 174.76 339.54 180 338.56 185.24 337.57 186.87 342.16 197.02 345.76 199.64 342.81 199.64 337.25 203.56 334.3 218.62 334.63 226.47 331.36 231.71 333.97 238.26 330.7 246.44 339.21 252 338.88 255.93 332.34 266.08 332.01 269.02 339.54 266.08 343.14 269.02 353.61 265.42 355.9 265.75 361.47 275.24 361.47 281.13 367.69 300.44 364.74 306.66 371.29 301.75 379.14 303.72 383.72 305.02 394.19 292.92 402.7 292.26 405.65 278.84 405.32 271.31 408.27 263.46 408.92 261.82 403.03 250.04 393.21 242.18 394.19 240.88 401.72 230.4 402.38 227.13 397.8 221.56 401.07 217.64 396.49 212.73 399.43 213.38 405.65 199.96 419.72 186.87 439.69 185.56 446.56 172.14 446.24 180.98 452.13 175.74 457.04 177.05 464.24 173.45 467.84 173.78 471.76 181.63 477.66 181.31 483.55 175.74 485.51 172.8 481.58 161.67 484.86 161.01 495.66 150.87 504.17 149.56 511.04 152.18 512.68 152.83 520.53 149.23 522.5 149.89 527.08 153.49 528.06 157.41 535.91 142.03 535.59 135.16 541.15 127.96 540.5"/><polygon id="SLVSANELCONGO" class="cls-1" points="200.62 583.37 175.42 567.33 175.42 552.93 159.38 544.1 159.38 537.55 157.41 535.91 153.49 528.06 149.89 527.08 149.23 522.5 152.83 520.53 152.18 512.68 149.56 511.04 150.87 504.17 161.01 495.66 161.67 484.86 172.8 481.58 175.74 485.51 181.31 483.55 187.85 484.86 189.82 490.75 204.22 472.42 216 472.42 216 486.17 211.75 491.4 213.71 495.33 213.38 500.89 216 503.84 222.22 503.84 222.22 510.06 219.27 510.06 219.6 517.91 222.22 520.2 220.91 526.42 225.82 532.97 222.55 536.57 217.31 531 213.38 531.99 215.67 540.82 223.53 541.8 227.46 554.24 230.73 554.9 232.37 560.46 236.29 561.44 236.29 571.92 242.84 573.55 244.47 580.75 242.18 585.34 233.68 585.34 229.42 580.75 221.56 580.43 219.93 583.7 215.02 584.03 212.73 580.43 207.49 584.03 200.62 583.37"/><polygon id="SLVSANCOATEPEQUE" class="cls-1" points="297.5 432.82 297.5 425.29 294.22 423.98 297.5 412.52 294.22 410.56 292.26 405.65 278.84 405.32 271.31 408.27 263.46 408.92 261.82 403.03 250.04 393.21 242.18 394.19 240.88 401.72 230.4 402.38 227.13 397.8 221.56 401.07 217.64 396.49 212.73 399.43 213.38 405.65 199.96 419.72 186.87 439.69 185.56 446.56 172.14 446.24 180.98 452.13 175.74 457.04 177.05 464.24 173.45 467.84 173.78 471.76 181.63 477.66 181.31 483.55 187.85 484.86 189.82 490.75 204.22 472.42 216 472.42 216 486.17 211.75 491.4 213.71 495.33 213.38 500.89 216 503.84 222.22 503.84 222.22 510.06 219.27 510.06 219.6 517.91 222.22 520.2 220.91 526.42 225.82 532.97 222.55 536.57 217.31 531 213.38 531.99 215.67 540.82 223.53 541.8 227.46 554.24 230.73 554.9 232.37 560.46 236.29 561.44 248.4 553.26 251.35 532.31 249.06 519.88 250.37 504.49 242.18 484.2 244.47 472.42 248.4 463.91 254.62 461.62 255.93 455.4 260.19 455.4 263.46 451.14 270.33 451.47 273.28 447.54 285.39 437.07 297.5 432.82"/><polygon id="SLVSANSANSEBASTIANSALITRILLO" class="cls-1" points="65.44 393.21 65.44 376.52 76.57 384.87 76.57 390.92 87.05 400.41 97.52 400.41 99.81 398.12 106.68 403.36 110.94 410.56 118.47 412.85 121.41 419.07 117.16 426.27 115.85 432.49 88.36 453.44 87.05 460.31 81.16 460.31 76.57 445.58 79.19 428.89 84.76 424.31 83.77 413.18 86.06 410.23 84.1 405.65 65.44 393.21"/><polygon id="SLVSANELPROVENIR" class="cls-1" points="93.43 329.06 104.07 331.36 104.07 335.94 111.27 340.52 107.67 346.74 107.99 352.63 105.38 355.25 105.05 359.83 108.97 364.41 109.3 372.92 106.36 375.21 106.03 381.1 101.45 384.05 99.81 398.12 97.52 400.41 87.05 400.41 76.57 390.92 76.57 384.87 65.44 376.52 62.17 371.61 54.97 372.27 51.04 361.47 58.24 358.52 53.99 348.7 57.26 342.16 63.15 342.16 65.44 338.23 68.51 338.56 71.66 335.94 77.56 340.19 81.16 338.23 86.39 339.21 93.43 329.06"/><polygon id="SLVSANCHALCHUAPA" class="cls-1" points="7.19 477.33 11.44 481.58 27.81 481.58 36.32 485.18 41.23 481.26 49.08 481.26 54.32 477.33 62.5 485.18 74.61 485.18 74.61 493.37 76.25 512.68 96.87 513.66 99.81 510.06 99.48 504.17 93.27 504.17 89.99 500.24 91.3 482.24 87.05 460.31 81.16 460.31 76.57 445.58 79.19 428.89 84.76 424.31 83.77 413.18 86.06 410.23 84.1 405.65 65.44 393.21 65.44 376.52 62.17 371.61 54.97 372.27 51.04 361.47 58.24 358.52 53.99 348.7 57.26 342.16 53.5 332.66 53.5 319.25 42.86 314.01 43.19 305.5 45.81 304.19 44.83 297.97 49.73 297.97 51.04 282.59 55.63 278.01 55.63 271.13 51.04 261.97 42.21 255.75 25.19 267.86 24.21 275.71 18.32 282.92 8.5 314.34 0.64 327.75 0.64 333.65 2.93 337.9 0.64 342.16 0.64 347.72 7.84 353.61 3.59 356.56 3.91 361.47 19.62 366.38 20.61 378.16 41.55 390.6 41.55 413.18 35.66 414.49 35.33 421.36 29.12 421.69 26.82 441.98 20.93 446.56 21.59 460.31 15.04 465.87 14.06 472.42 7.19 477.33"/><polygon id="SLVSANCANDELARIADELAFRONTERA" class="cls-1" points="74.94 225.31 69.7 225.31 65.44 232.51 51.04 243.64 47.77 245.28 42.21 255.75 51.04 261.97 55.63 271.13 55.63 278.01 51.04 282.59 49.73 297.97 44.83 297.97 45.81 304.19 43.19 305.5 42.86 314.01 53.5 319.25 53.5 332.66 57.26 342.16 63.15 342.16 65.44 338.23 68.51 338.56 71.66 335.94 77.56 340.19 81.16 338.23 86.39 339.21 93.43 329.06 104.07 331.36 104.07 335.94 111.27 340.52 122.07 333.65 127.96 333.65 131.56 331.36 131.56 325.79 138.1 324.48 140.72 321.54 140.72 310.41 149.23 310.41 149.23 302.88 153.49 296.33 153.49 288.48 139.09 286.52 138.76 282.26 134.18 278.66 131.23 283.73 125.01 276.7 125.34 267.53 127.96 264.26 125.34 261.64 117.81 267.86 113.23 264.91 105.05 269.82 104.39 274.08 95.88 274.41 95.23 269.17 88.36 255.75 81.16 257.71 76.9 251.17 77.56 234.8 74.94 225.31"/><polygon id="SLVSANSANTIAGODELAFRONTERA" class="cls-1" points="141.71 245.93 129.92 243.97 121.41 217.46 99.81 213.2 74.94 225.31 77.56 234.8 76.9 251.17 81.16 257.71 88.36 255.75 95.23 269.17 95.88 274.41 104.39 274.08 105.05 269.82 113.23 264.91 117.81 267.86 125.34 261.64 127.96 264.26 136.14 263.93 136.14 255.75 141.71 245.93"/><polygon id="SLVSANSANANTONIOPAJONAL" class="cls-1" points="198.33 213.2 192.93 207.97 204.54 193.89 203.24 185.38 195.71 185.38 192.93 188.98 189.49 188.66 187.2 195.2 180.33 199.29 172.8 199.29 172.8 203.38 166.25 202.07 156.43 210.91 143.34 215.16 126.32 215.16 121.41 217.46 129.92 243.97 141.71 245.93 136.14 255.75 136.14 263.93 138.43 266.55 143.01 266.55 155.12 254.44 162.98 254.44 166.25 251.5 170.83 255.75 177.05 251.5 185.24 250.51 192.93 235.78 192.93 230.22 195.71 225.97 194.4 218.44 198.65 217.13 198.33 213.2"/><polygon id="SLVSANTEXISTEPEQUE" class="cls-1" points="209.05 237.75 209.05 243.8 238.58 243.8 238.58 253.79 242.51 255.75 251.35 255.75 259.53 267.86 275.57 266.55 275.57 271.46 270.66 278.01 278.84 278.01 278.84 288.48 284.4 288.48 286.7 296.01 286.7 308.12 283.42 313.68 276.88 313.68 278.51 319.25 272.3 321.86 266.08 332.01 255.93 332.34 252 338.88 246.44 339.21 238.26 330.7 231.71 333.97 226.47 331.36 218.62 334.63 203.56 334.3 199.64 337.25 199.64 342.81 197.02 345.76 186.87 342.16 185.24 337.57 174.76 339.54 174.76 329.72 164.94 331.03 163.31 311.06 180 298.3 161.34 298.95 161.34 288.48 153.49 288.48 139.09 286.52 138.76 282.26 134.18 278.66 131.23 283.73 125.01 276.7 125.34 267.53 127.96 264.26 136.14 263.93 138.43 266.55 143.01 266.55 155.12 254.44 162.98 254.44 166.25 251.5 170.83 255.75 177.05 251.5 185.24 250.51 192.93 235.78 209.05 237.75"/><path id="SLVSANMTAPAN" class="cls-1" d="M200,129.74l5.89,29.46,12.44,3.6V172l8.18,4.58v4.59h-4.91l-4.9,6.22-10.81-5.57-2.61,3.6,1.31,8.51L192.93,208l5.4,5.24.32,3.93-4.25,1.31,1.31,7.53-2.78,4.25v5.56l16.12,2v6.05h29.53l28.48-32.89,12.11-1V199.46l16,.32,9.49-4.58,6.22,6.87V213.2H342l5.89-18,8.51-5.89,2.62-5.89,17.34-3.6,10.15.65,16-14.4V150l9.16-14.72V121.89L416.3,117v-8.51l-40.91-31.1s-1.63-10.14-2.29-9.16S333.17,25,333.17,25H320.73l-6.87-6.88-9.24,1.31V.79L293.57,3.08l-7.86,10.8.33,7.85L262.15,34.5l-6.22-6.87-20.62-8.84h-7.85l-4.26,8.84-4.25-1L199,39.41,190.8,54.46l-9.17.66V48.9l3.28-1.64-3.28-9.49-5.56-1.31L172.47,26,146.29,27.3l-5.89,7.53v14.4l2.94,21.27,10.15,8.18v5.24l-4.58-.65v7.2l-4.59-.33-10.14,2.62V98l-3.28,3.93,1.64,15.38,4.26.66,3.27-3.93,16.69.33,13.09,16.69,5.24-.65,1.64-2,6.87-.32,2,4.58Z"/><path id="SLVSANSANTAROSAGUACHIPILIN" class="cls-1" d="M330.88,247.57,360,243.8s-.65-9.65,0-10.63a34.94,34.94,0,0,1,3.6-3.6V220.4l-3.6-1.31v-7.85l3.6-3v-8.18h-6.22l-1-10.8-8.51,5.89-5.89,18H310.92V202.07l-6.22-6.87-9.49,4.58-16-.32v10.47H293.9l1.31,3.27,6.21-1.31,9.91,15.78,10.06,2.55v8.18l2,1.31,1,4.09Z"/><polygon id="SLVSANMASAHUAT" class="cls-1" points="299.46 278.33 311.24 269.5 313.86 262.3 318.77 260.66 318.77 250.19 323.35 247.57 330.88 247.57 324.33 243.8 323.35 239.71 321.39 238.4 321.39 230.22 311.33 227.67 301.43 211.89 295.21 213.2 293.9 209.93 279.17 209.93 267.06 210.91 238.58 243.8 238.58 253.79 242.51 255.75 251.35 255.75 259.53 267.86 275.57 266.55 275.57 271.46 270.66 278.01 278.84 278.01 278.84 288.48 284.4 288.48 286.7 284.88 286.7 279.64 290.95 277.35 299.46 278.33"/></g></g></svg>