<svg xmlns="http://www.w3.org/2000/svg" viewBox="0 0 587.27 828.49"><defs><style>.cls-1{fill:#de0006;stroke:#fff;stroke-miterlimit:10;}</style></defs><g id="Capa_2" data-name="Capa 2"><g id="Capa_1-2" data-name="Capa 1"><polygon id="SLVCUSSANTACRUZANALQUITO" class="cls-1" points="426.06 827.82 436.95 814.54 443.42 812.16 447.84 803.65 447.84 795.14 455.67 780.84 426.06 766.54 379.42 763.82 354.91 780.84 374.65 795.82 390.99 807.73 415.5 820.33 426.06 827.82"/><path id="SLVCUSCANDELARIA" class="cls-1" d="M335.5,692l2.05,17,6.12,17.36-2.38,11.23-34.75,12.6-2.36,3.4L309,768.92s13.62,8.51,15,7.83,31,4.09,31,4.09l24.51-17,46.64,2.72,11.57-11.91v-9.2l-17.7-34.38-14.64,2L393,701.18l-12.94.68-15-16.68Z"/><polygon id="SLVCUSSANRAMON" class="cls-1" points="486.99 769.95 471.33 779.14 455.67 780.84 426.06 766.54 437.63 754.63 437.63 745.43 419.93 711.05 453.46 711.05 470.31 696.75 477.46 696.75 483.59 709.69 493.12 714.12 493.12 738.8 483.93 747.14 480.87 754.28 481.89 763.82 486.99 769.95"/><polygon id="SLVCUSSANTACRUZMICHAPA" class="cls-1" points="359.67 669.18 352.49 688.08 365.12 685.18 394.74 678.63 415.16 666.46 415.16 654.54 405.29 633.77 405.29 628.33 415.16 623.56 415.16 577.26 403.59 567.39 399.5 557.18 392.36 557.18 390.31 566.37 381.46 566.03 383.83 546.97 373.97 544.92 366.82 573.86 361.04 577.26 361.04 582.71 368.52 591.9 352.49 624.92 341.97 623.56 341.97 631.39 346.4 637.18 347.42 645.69 359.67 669.18"/><polygon id="SLVCUSSANCRISTOBAL" class="cls-1" points="568.36 681.09 571.42 688.08 568.36 696.75 579.93 710.37 579.93 721.95 536.36 746.12 534.99 754.28 527.16 760.75 500.95 766.54 486.99 769.95 481.89 763.82 480.87 754.28 483.93 747.14 493.12 738.8 493.12 714.12 483.59 709.69 481.5 705.28 493.12 699.82 502.99 688.08 520.01 681.09 549.97 679.39 557.12 677.35 562.91 680.75 568.36 681.09"/><polygon id="SLVCUSCOJUTEPEQUE" class="cls-1" points="447.5 628.33 453.29 602.46 453.29 580.67 459.42 574.2 472.36 574.2 474.06 584.75 485.63 596.33 485.63 614.03 466.57 638.88 466.57 645.69 480.87 664.07 483.25 675.99 520.01 681.09 502.99 688.08 493.12 699.82 481.5 705.28 477.46 696.75 470.31 696.75 453.46 711.05 419.93 711.05 405.29 713.09 393.04 701.18 380.1 701.86 365.12 685.18 394.74 678.63 415.16 666.46 415.16 654.54 434.23 651.82 448.52 643.65 442.57 636.84 440.01 632.75 447.5 628.33"/><polygon id="SLVCUSELCARMEN" class="cls-1" points="473.04 559.22 485.63 570.46 487.33 578.28 507.76 589.86 515.25 604.5 523.76 625.26 523.76 635.82 536.01 647.05 536.01 655.22 541.8 663.73 564.27 657.6 564.27 668.16 569.04 677.35 568.36 681.09 562.91 680.75 557.12 677.35 549.97 679.39 520.01 681.09 483.25 675.99 480.87 664.07 466.57 645.69 466.57 638.88 485.63 614.03 485.63 596.33 474.06 584.75 472.36 574.2 473.04 559.22"/><polygon id="SLVCUSSANRAFAELCEDROS" class="cls-1" points="575.5 632.07 575.5 648.75 564.27 657.6 541.8 663.73 536.01 655.22 536.01 647.05 523.76 635.82 523.76 623.56 515.25 604.5 530.4 605.86 532.27 601.43 527.5 591.9 527.5 583.39 541.8 565.35 540.78 557.18 531.93 546.97 538.4 542.88 558.14 560.58 560.18 567.05 569.04 578.63 581.63 579.99 581.63 603.31 586.74 608.24 584.7 623.9 575.5 632.07"/><polygon id="SLVCUSELROSARIO" class="cls-1" points="466.57 512.24 480.87 509.18 482.57 522.8 490.4 527.56 504.01 522.46 520.01 527.56 530.4 534.03 538.4 542.88 531.93 546.97 540.78 557.18 541.8 565.35 527.5 583.39 527.5 591.9 532.27 601.43 530.4 605.86 515.25 604.5 507.76 589.86 487.33 578.28 485.63 570.46 473.04 559.22 470.99 557.52 470.31 536.41 463.84 523.48 463.84 512.58 466.57 512.24"/><polygon id="SLVCUSMONTESANJUAN" class="cls-1" points="447.16 514.63 447.16 504.75 460.1 502.71 463.84 512.58 463.84 523.48 470.31 536.41 470.99 557.52 473.04 559.22 472.36 574.2 459.42 574.2 453.29 580.67 453.29 602.46 447.5 628.33 440.01 632.75 442.57 636.84 448.52 643.65 434.23 651.82 415.16 654.54 405.29 633.77 405.29 628.33 415.16 623.56 415.16 577.26 403.59 567.39 399.5 557.18 392.36 557.18 390.31 566.37 381.46 566.03 383.83 546.97 393.72 544.92 404.27 525.18 415.16 521.09 429.12 519.05 432.87 513.26 447.16 514.63"/><polygon id="SLVCUSTENANCINGO" class="cls-1" points="341.97 369.6 402.23 421.01 422.99 418.63 454.99 448.24 454.99 463.56 459.76 467.99 459.76 485.35 478.82 496.58 480.87 509.18 463.84 512.58 460.1 502.71 447.16 504.75 447.16 514.63 432.87 513.26 429.12 519.05 415.16 521.09 404.27 525.18 393.72 544.92 383.83 546.97 373.97 544.92 352.52 520.07 338.23 495.56 320.52 486.37 297.04 451.31 303.5 402.63 313.72 369.6 328.36 365.52 335.5 371.99 341.97 369.6"/><path id="SLVCUSSANPEDROPERULAPAN" class="cls-1" d="M278.31,396.5l9.19-8.17h6.81l5.45,8.17h5.64l-1.9,6.13L297,451.31l23.48,35.06,17.71,9.19,14.29,24.51L374,544.92l-7.15,28.94-5.78,3.4v5.45l7.48,9.19-16,33L342,623.56v7.83l4.43,5.79,1,8.51,12.25,23.49-7.18,18.9-17,3.91h-6.12l-20.09,18.72s-17.7-15.32-18.72-15.66-12.26,7.49-12.26,7.49V692.33l-36.76-67.75,10.89-4.42,1-11.58L246,598.71l4.09-27.91-5.79-9.88-12.94-5.78L228.27,534l9.87-5.79,2.73-17,12.25-11.91-.34-14.3L263,476.5l-.34-14.3L249,451.31l-3.41-20.09-11.57-2-5.79-10.89L233,408.07l23.48-16Z"/><polygon id="SLVCUSSANBARTOLOMENPERULAPIA" class="cls-1" points="195.25 514.97 195.25 537.43 221.46 569.09 224.87 585.43 241.55 624.58 252.44 620.16 253.46 608.58 245.97 598.71 250.06 570.8 244.27 560.92 231.33 555.14 228.27 534.03 238.14 528.24 240.87 511.22 253.12 499.31 252.78 485.01 242.23 485.01 230.99 494.2 225.89 502.71 216.69 507.48 207.16 506.45 195.25 514.97"/><polygon id="SLVCUSORATORIODECONCEPCION" class="cls-1" points="183.33 425.77 183.33 437.69 175.16 445.18 175.16 456.24 183.33 469.01 191.5 494.54 195.25 514.97 207.16 506.45 216.69 507.48 225.89 502.71 230.99 494.2 242.23 485.01 252.78 485.01 262.99 476.5 262.65 462.2 249.04 451.31 245.63 431.22 234.06 429.18 228.27 418.29 214.65 418.29 207.84 424.75 190.82 421.35 183.33 425.77"/><polygon id="SLVCUSSANJOSEGUAYABAL" class="cls-1" points="95.16 330.45 60.44 361.77 45.8 365.52 33.55 373.35 31.84 382.2 36.95 386.63 47.16 388.33 49.89 399.22 49.21 413.86 56.7 419.99 68.27 418.29 83.25 413.52 101.29 426.8 113.89 466.63 126.82 475.48 133.97 494.88 143.84 505.43 166.31 507.48 195.25 514.97 191.5 494.54 183.33 469.01 175.16 456.24 175.16 445.18 183.33 437.69 183.33 425.77 190.82 421.35 207.84 424.75 214.65 418.29 221.12 418.29 221.12 406.03 219.08 396.16 224.35 392.41 225.89 378.12 216.01 376.07 197.97 391.05 188.78 390.37 157.8 380.84 153.04 371.31 162.57 359.39 150.31 343.39 134.31 348.84 126.14 341.35 113.55 343.73 95.16 330.45"/><path id="SLVCUSSUCHITOTO" class="cls-1" d="M3.25,185.77,22,175.9l14-43.91V81.26l-8.17-8.85.34-20.08,18-18.39,2.38-21.78L62.48.58l6.13,2.73,1.7,7.83L90.74,28.5l-2.39,6.81,10.9,8.51,6.81,9.87,6.12,1.36,13.28,9.87,6.13-.34V55.05l-8.51-7.83,2-4.42L134,46.2l12.26-6.47L157.8,47.9l6.47,2.39,3.4,8.17,4.09-.69V50.29l7.83-4.43L177.89,52v5.1l17.7-1.7v7.49l-16.68,9.53.68,4.09,23.15-4.43-15,21.11h27.91l-6.12-12.6,6.12-.34,5.11-5.1,3.06,2.38V97.6l3.75,2.39,2-6.81,13.28,10.55v6.13l6.47,3.74-1.71,8.86L235.42,118l-6.13-8.17-8.51,3.74-.34,16.34-17,9.54.68,3.74,8.51,2.38,13.28-6.8v9.53l6.81-1.7-.69-8.52,9.2,5.45,13.27-6.81,3.75,6.47L253.12,148l5.11,3.06v6.13L246,163.65l2,4.08L263.67,163l10.9,15.32-3.07,7.48L260.27,198H271.5l6.13,10.89v15l-6.47,9.19,11.24-10.55h6.47l5.78,14,9.19,2.38,2.7,11.92,10.92,12.93-2,24.17,12.93-18.38,7.15,12.94-3.4,18.72L345,285.52l1.36-9.19,10.21-.34v6.81l10.89,11.91,2.39-5.11-6.13-12.25L363.08,260l-28.6-3.75.68-7.15,12.6-4.08,7.83-9.19h11.57v5.1l-7.15,1,9.88,2.39-2.39,5.1-3.74,3.07,6.13,1.7,7.15,3.74,5.78-9.87,8.17-.68-4.42-9.19.34-8.85,14.3.68,10.21,5.45S396.1,276.67,389,283.14s-44.6,42.21-44.6,42.21L342,369.6,335.5,372l-7.15-6.47-14.63,4.08-8.32,26.9h-5.64l-5.45-8.17H287.5l-9.19,8.17-21.79-4.43-23.48,16-4.77,10.22h-7.15V406l-2-9.87,5.27-3.75,1.54-14.3-9.88-2-18,15-7.45-.55-32.72-9.66L153,371.31l9.53-11.92-12.26-16-16,5.45-8.17-7.49-12.59,2.38L95.16,330.46,81.55,315.14l-12.94-1.71-25.87-21.1L40,272.58,29.46,262.37l-4.42-17L.52,199.73Z"/></g></g></svg>