<svg xmlns="http://www.w3.org/2000/svg" viewBox="0 0 385.03 523.56"><defs><style>.cls-1{fill:#de0006;stroke:#fff;stroke-miterlimit:10;}</style></defs><g id="Capa_2" data-name="Capa 2"><g id="Capa_1-2" data-name="Capa 1"><polygon id="SLV1346JICALAPA" class="cls-1" points="54.66 454.13 59.77 454.13 73.39 462.13 81.05 462.13 91.6 457.02 99.6 458.13 106.75 458.13 107.6 454.13 101.81 448 101.64 443.23 104.88 437.96 107.6 422.3 106.92 416.85 110.66 411.4 110.66 408.17 108.11 405.45 112.37 399.49 112.37 396.76 107.94 396.76 107.94 393.02 103.34 390.47 98.58 393.02 92.28 398.13 86.83 398.81 80.37 407.32 78.15 404.08 77.64 399.83 75.77 397.11 71.69 396.42 68.62 399.66 68.62 408.34 63.86 411.74 63.17 425.53 55.52 446.81 54.66 454.13"/><polygon id="SLV1346TEOTEPEQUE" class="cls-1" points="1.39 443.23 10.24 447.49 16.71 447.49 32.37 447.49 51.09 455.49 54.66 454.13 55.52 446.81 63.17 425.53 63.86 411.74 68.62 408.34 68.62 399.66 71.69 396.42 75.77 397.11 77.64 399.83 78.15 404.08 80.37 407.32 86.83 398.81 92.28 398.13 98.58 393.02 99.94 382.98 106.41 377.19 105.22 370.55 107.6 365.79 112.37 361.7 112.37 351.49 114.24 349.79 114.24 344.34 117.47 340.6 116.62 334.3 109.98 332.6 106.92 336.85 92.45 343.49 88.37 339.57 81.9 341.96 74.92 342.3 71.17 347.57 60.62 353.36 58.41 359.49 48.71 369.36 46.32 376.34 46.49 387.23 43.77 395.74 31.18 406.81 17.9 420.76 13.98 427.57 0.54 436.94 1.39 443.23"/><polygon id="SLV1346TEPECOYO" class="cls-1" points="71.69 294.98 74.92 342.3 81.9 341.96 88.37 339.57 92.45 343.49 106.92 336.85 109.98 332.6 111.17 329.19 117.47 324.42 119.34 322.38 119.34 316.42 126.83 312.17 126.83 308.6 131.43 307.23 133.98 303.49 137.73 302.64 139.77 299.91 139.77 293.45 147.77 282.55 147.77 277.45 132.45 278.3 130.24 281.19 127.52 280.51 126.83 278.64 115.6 278.47 112.88 282.21 112.88 285.11 109.73 286.64 106.75 281.87 103.69 283.06 102.32 285.27 94.66 285.96 82.41 286.13 75.09 289.87 71.69 294.98"/><polygon id="SLV1346SACACOYO" class="cls-1" points="141.81 248.85 137.73 253.62 136.88 258.72 131.77 257.7 129.73 258.72 129.73 265.19 127.34 266.38 121.39 261.45 118.32 266.38 114.75 266.38 112.37 269.45 111.52 274.55 106.75 274.55 105.22 278.81 103.69 283.06 106.75 281.87 109.73 286.64 112.88 285.11 112.88 282.21 115.6 278.47 126.83 278.64 127.52 280.51 130.24 281.19 132.45 278.3 147.77 277.45 147.77 278.98 149.98 278.81 152.88 281.53 157.64 278.81 162.07 278.98 165.64 275.4 166.83 270.81 161.39 265.7 161.22 261.62 156.79 253.79 150.66 253.79 150.18 251 149.13 248.85 141.81 248.85"/><polygon id="SLV1346CIUDADARCE" class="cls-1" points="135.26 166.81 135.26 172.94 133.3 175.15 137.9 183.83 135.26 190.47 135.26 203.57 133.3 207.66 129.56 209.19 125.81 209.19 121.56 215.32 123.77 218.55 123.77 223.49 128.2 226.72 128.03 235.57 135.26 240 139.26 240 140.96 242.21 141.81 248.85 149.13 248.85 150.18 251 150.66 253.79 156.79 253.79 164.11 253.79 165.47 252.25 164.28 247.49 165.47 246.13 168.2 248.85 173.47 248.85 175.51 251.74 177.73 251.06 181.47 243.91 189.64 239.49 189.64 235.74 186.07 234.72 186.58 226.72 183 222.81 185.22 219.74 185.56 217.02 189.64 213.62 196.11 219.91 198.83 216.85 198.83 212.08 194.02 208.34 186.92 206.98 187.26 196.59 183.69 186.04 186.07 183.83 186.24 177.7 186.07 168.85 181.3 164.76 175.51 170.38 175 173.79 171.94 175.49 162.24 173.96 158.32 166.98 157.64 162.72 150.83 156.59 142.32 164.59 141.64 168.68 139.43 168.34 138.75 166.13 135.26 166.81"/><polygon id="SLV1346SANPABLOTACACHICO" class="cls-1" points="235.09 2.04 242.24 2.04 248.03 0.59 249.73 4.59 251.6 16.51 256.54 17.19 258.92 14.64 263.51 15.83 266.24 12.25 271.51 14.98 271.51 19.74 276.11 23.66 272.71 27.4 270.32 31.66 266.58 32.85 267.26 39.83 264.88 43.91 264.54 49.02 259.94 48.17 260.62 59.74 263.86 63.49 265.39 69.11 268.45 70.98 271.69 69.62 276.11 74.21 281.39 74.21 281.39 78.13 268.96 79.15 268.96 90.72 260.11 97.53 255.18 105.02 249.39 105.7 245.98 100.77 246.32 93.96 236.62 85.62 235.09 88.34 233.22 87.83 233.22 84.94 229.47 82.57 224.71 89.53 220.28 89.53 212.62 86.13 208.54 86.13 205.64 89.19 194.75 88.68 191 91.91 183.51 91.57 177.39 83.74 178.41 74.72 175.69 70.47 180.79 60.59 184.2 60.08 187.09 56.51 187.6 49.02 182.83 45.96 182.83 42.21 187.77 37.27 188.28 30.81 194.02 30.98 197.13 33.19 199.69 31.66 199.18 25.53 203.6 22.47 203.6 15.83 208.2 12.77 211.77 14.98 219.09 14.64 227.26 10.72 235.09 2.04"/><polygon id="SLV1346SANJUANOPICO" class="cls-1" points="127.17 141.62 133.64 154.55 135.26 166.81 138.75 166.13 139.43 168.34 141.64 168.68 142.32 164.59 150.83 156.59 157.64 162.72 158.32 166.98 162.24 173.96 171.94 175.49 175 173.79 175.51 170.38 181.3 164.76 186.07 168.85 186.07 183.83 183.69 186.04 187.26 196.59 186.92 206.98 194.02 208.34 198.83 212.08 198.83 216.85 196.11 219.91 189.64 213.62 185.56 217.02 185.22 219.74 183 222.81 186.58 226.72 186.07 234.72 189.64 235.74 189.64 239.49 189.64 243.57 188.96 247.66 196.79 259.06 210.92 257.19 218.58 263.84 236.79 262.47 238.83 265.19 242.92 265.19 247.34 269.45 255.51 272 261.13 272 261.13 266.04 247.69 241.7 247.69 234.38 243.94 230.81 243.26 225.36 240.71 223.66 238.15 189.62 231.69 184.34 233.9 178.72 230.83 175.32 227.6 177.36 223.86 174.98 223.86 158.47 219.26 150.64 222.66 143.15 222.66 137.7 231.86 136.17 234.41 131.06 235.09 125.79 241.05 125.79 240.37 121.7 243.43 118.47 237.47 111.66 236.96 107.06 239.51 105.7 238.83 100.59 236.11 99.74 235.09 88.34 233.22 87.83 233.22 84.94 229.47 81.87 224.71 89.53 220.28 89.53 212.62 86.13 208.54 86.13 205.64 89.19 194.75 88.68 191 91.91 183.51 91.57 180.32 87.49 179.6 93.62 177.22 95.32 170.75 95.83 154.92 110.64 147.77 109.28 145.73 113.87 140.96 115.91 140.28 120.85 136.2 119.49 132.28 123.06 132.96 127.83 128.54 132.08 131.6 136 127.17 141.62"/><polygon id="SLV1346SANMATIAS" class="cls-1" points="282.24 93.45 279.69 91.06 282.24 86.81 287 86.81 287 83.23 283.35 82.57 281.39 78.13 268.96 79.15 268.96 90.72 260.11 97.53 255.18 105.02 249.39 105.7 245.98 100.77 246.32 93.96 236.62 85.62 235.09 88.34 236.11 99.74 238.83 100.59 239.51 105.7 236.96 107.06 237.47 111.66 243.43 118.47 240.37 121.7 241.05 125.79 235.09 125.79 234.41 131.06 231.86 136.17 222.66 137.7 222.66 143.15 219.26 150.64 223.86 158.47 223.86 174.98 227.6 177.36 230.83 175.32 233.9 178.72 237.3 177.87 238.15 174.81 245.98 172.76 256.03 173.28 258.92 169.02 254.83 164.42 257.39 158.13 261.13 157.79 261.13 152.17 268.45 145.36 272.88 145.36 272.71 137.53 275.6 134.98 270.66 125.96 270.83 116.77 274.07 114.38 272.88 102.3 282.24 93.45"/><polygon id="SLV1346QUEZALTEPEQUE" class="cls-1" points="315.6 102.47 297.39 101.28 287 93.79 282.24 93.45 272.88 102.3 274.07 114.38 270.83 116.77 270.66 125.96 275.6 134.98 272.71 137.53 272.88 145.36 268.45 145.36 261.13 152.17 261.13 157.79 257.39 158.13 254.83 164.42 258.92 169.02 256.03 173.28 245.98 172.76 238.15 174.81 237.3 177.87 233.9 178.72 231.69 184.34 238.15 189.62 240.71 223.66 243.26 225.36 243.94 230.81 247.69 234.38 247.69 241.7 261.13 266.04 261.13 272 269.64 268.94 277.81 249.87 285.98 222.98 285.13 215.49 283.77 209.87 291.26 199.15 291.43 189.79 301.3 160.85 301.98 137.7 308.28 133.1 308.28 123.57 315.6 120 315.6 102.47"/><polygon id="SLV1346JAYAQUE" class="cls-1" points="172.28 288.85 162.07 278.98 157.64 278.81 152.88 281.53 149.98 278.81 147.77 278.98 147.77 282.55 139.77 293.45 139.77 299.91 137.73 302.64 133.98 303.49 131.43 307.23 126.83 308.6 126.83 312.17 119.34 316.42 119.34 322.38 111.17 329.19 109.98 332.6 116.62 334.3 117.47 340.6 123.6 340.6 127.17 354.72 133.13 354.72 134.32 358.81 140.45 358.81 141.13 354.89 138.58 352.85 139.77 349.11 143.69 348.94 146.24 340.42 149.47 338.04 154.07 338.04 154.58 332.6 165.13 323.23 164.79 317.96 160.2 320.68 155.77 317.11 157.81 314.04 155.6 312.17 152.2 315.74 149.98 314.89 149.98 311.15 143.34 304.17 144.2 300.08 147.77 299.91 151.34 296.17 156.62 298.55 158.83 301.27 158.83 305.53 162.75 308.08 164.96 308.42 166.83 303.15 170.41 301.27 170.07 294.13 172.28 288.85"/><path id="SLV1346COLON" class="cls-1" d="M194,310.47h-8.46l-6-8.68-2-12.77-5.28-.17L162.07,279l3.57-3.58,1.19-4.59-5.44-5.11s.17-5.79,0-4.94-4.6-7-4.6-7h7.32l1.36-1.54-1.19-4.76,1.19-1.36,2.73,2.72h5.27l2.05,2.89,2.21-.68,3.74-7.15,8.17-4.42v4.08l-.68,4.09,7.83,11.4,14.13-1.87,7.66,6.65,18.21-1.37,2,2.72h4.09l4.42,4.26,8.18,2.55h5.61l-8.51,5.45-1.53,3.23-11.92,3.06v3.75l1.88,8.85-2.56.51,1,6.47-3.24.34-.85-1.36-10.21-.17-2.56,2.21-12.76-1L201.05,295l-3.92,3.91-6.3.68.17,5.11Z"/><polygon id="SLV1346TALNIQUE" class="cls-1" points="171.6 343.49 171.6 338.55 165.47 338.55 164.11 334.3 160.2 334.3 157.98 338.89 154.07 338.04 154.58 332.6 165.13 323.23 164.79 317.96 160.2 320.68 155.77 317.11 157.81 314.04 155.6 312.17 152.2 315.74 149.98 314.89 149.98 311.15 143.34 304.17 144.2 300.08 147.77 299.91 151.34 296.17 156.62 298.55 158.83 301.27 158.83 305.53 162.75 308.08 164.96 308.42 166.83 303.15 170.41 301.27 170.07 294.13 172.28 288.85 177.56 289.02 179.6 301.79 185.56 310.47 194.02 310.47 198.83 313.7 202.24 311.32 213.3 311.32 218.41 308.94 219.26 313.7 219.26 317.79 213.81 323.74 207.51 324.08 201.73 326.3 190.66 337.02 183.51 336.17 177.9 343.49 171.6 343.49"/><polygon id="SLV1346CHILTIUPAN" class="cls-1" points="150.15 463.04 129.39 459.91 116.62 456.34 111.17 458.38 106.75 458.13 107.6 454.13 101.81 448 101.64 443.23 104.88 437.96 107.6 422.3 106.92 416.85 110.66 411.4 110.66 408.17 108.11 405.45 112.37 399.49 112.37 396.76 107.94 396.76 107.94 393.02 103.34 390.47 98.58 393.02 99.94 382.98 106.41 377.19 105.22 370.55 107.6 365.79 112.37 361.7 112.37 351.49 114.24 349.79 114.24 344.34 117.47 340.6 123.6 340.6 127.17 354.72 133.13 354.72 134.32 358.81 137.73 376.85 139.09 391.83 138.75 400.85 142.15 405.96 145.05 421.11 150.15 435.57 150.15 450.04 150.15 463.04"/><path id="SLV1346TAMANIQUE" class="cls-1" d="M181.3,399.32V388.59l-1.7-2.72V375.66l-6.47-9,.85-5.28-5.27-6H161.9v-6.81l4.25-1.36.17-5.44,5.28,1.7v-4.94h-6.13l-1.36-4.25H160.2L158,338.89l-3.91-.85h-4.6l-3.23,2.38-2.55,8.52-3.92.17-1.19,3.74,2.55,2-.68,3.92h-6.13l3.41,18s1.36,20.26,1,24l3.4,5.11,2.9,15.15,5.1,14.46V463l15-.91h11.75L181.3,464l14.81-1v-3.3l3.41-2.89-3.24-4.43,3.24-4.08v-14L194,424.17l-5.74-15.66Z"/><path id="SLV1346SANTATECLA" class="cls-1" d="M231.69,438.81l7.83,2.55v-8.17h3.91v-7.83l3.91-2.21v-8.34l-3.91-6.3,3.91-22.64,8-9.53,5.79-15.15h6l4.43-5.62V345.7l-3.07-8.34,1.36-5.79,9.53-7v-5.78l2.05-2.64v-10.3l-4.94-4.59,4.94-1,1.87-7-6.64-1-1.36-3.4H278v-3.74l-2.38-1.2.17-2.72,9.19-8.34v-7.66L272.37,272l-2.73-3.06L261.13,272l-8.51,5.45-1.53,3.23-11.92,3.06s-.51,2.56,0,3.75,1.88,8.85,1.88,8.85l-2.56.51,1,6.47-3.24.34-.85-1.36-10.21-.17-2.56,2.21-12.76-1L201.05,295l-3.92,3.91-6.3.68.17,5.11,3,5.79,4.81,3.23,3.41-2.38H213.3l5.11-2.38.85,8.85,5.28,5.27,2.89-4.25h2.72l1.54,2.21v6l-5.28,10.21,4.59,4.94-.51,3.06-2,.85.17,2.38,2.21.69.51,19.91L224,371.74l1.36,7.15L223,382.81l-.68,9.7,2.9,4.94v9l-3.75,3.74v20.6l4.94,3.23,2.72-1.7,2.39.34Z"/><polygon id="SLV1346COMASAGUA" class="cls-1" points="209.9 435.23 201.56 422.81 194.02 424.17 188.28 408.51 181.3 399.32 181.3 388.6 179.6 385.87 179.6 375.66 173.13 366.64 173.98 361.36 168.71 355.4 161.9 355.4 161.9 348.6 166.15 347.23 166.32 341.79 171.6 343.49 177.9 343.49 183.51 336.17 190.66 337.02 201.73 326.3 207.51 324.08 213.81 323.74 219.26 317.79 224.54 323.06 227.43 318.81 230.15 318.81 231.69 321.02 231.69 326.98 226.41 337.19 231 342.13 230.49 345.19 228.45 346.04 228.62 348.42 230.83 349.11 231.34 369.02 224.03 371.74 225.39 378.89 223 382.81 222.32 392.51 225.22 397.45 225.22 406.47 221.47 410.21 221.47 430.81 216.88 430.64 209.9 435.23"/><polygon id="SLV1346NUEVOCUSCATLAN" class="cls-1" points="294.32 348.94 291.43 332.94 284.96 334.3 284.28 331.06 280.54 331.06 279.69 333.45 269.56 332.66 268.45 337.36 271.51 345.7 276.28 350.13 280.54 350.13 283.77 347.91 287.86 350.13 290.92 353.27 292.79 352.34 293.13 349.11 294.32 348.94"/><polygon id="SLV1346ZARAGOZA" class="cls-1" points="263.18 442.38 259.77 439.32 259.77 435.23 256.37 432 252.45 432 246.83 436.25 244.45 435.23 243.43 433.19 243.43 425.36 247.34 423.15 247.34 414.81 243.43 408.51 247.34 385.87 255.34 376.34 261.13 361.19 267.09 361.19 268.45 368.85 268.45 376.51 266.07 379.4 266.92 396.25 265.05 397.79 265.39 407.15 261.13 413.11 262.66 429.96 261.13 431.32 262.15 434.04 263.86 436.08 263.18 442.38"/><polygon id="SLV1346ANTIGUOCUSCATLAN" class="cls-1" points="300.45 301.62 283.26 293.27 281.39 300.25 276.45 301.27 281.39 305.87 281.39 316.17 279.35 318.81 279.35 324.6 269.81 331.57 269.56 332.66 279.69 333.45 280.54 331.06 284.28 331.06 284.96 334.3 291.43 332.94 294.32 348.94 299.6 352.34 305.9 352.34 304.88 341.45 309.64 334.3 315.6 334.3 317.81 331.06 315.6 327.32 311.35 326.81 303.69 314.04 303 304.51 300.45 301.62"/><polygon id="SLV1346HUIZUCAR" class="cls-1" points="320.37 355.74 313.56 350.47 305.9 352.34 299.6 352.34 294.32 348.94 293.13 349.11 292.79 352.34 290.92 353.27 283.77 347.91 280.54 350.13 276.28 350.13 273.9 373.45 283.43 396.08 286.15 400.51 293.69 405.11 293.69 410.89 299.43 419.91 300.45 436.76 300.28 448.85 297.9 464 304.71 465.7 309.98 465.7 317.81 460.42 323.09 459.4 323.09 449.87 316.62 442.38 311.35 430.3 311 421.27 317.81 411.23 317.81 397.11 310.66 386.21 310.15 380.25 314.92 373.79 312.03 368.34 315.43 361.19 320.37 355.74"/><polygon id="SLV1346SANJOSEVILLANUEVA" class="cls-1" points="279 442.38 273.9 442.38 269.56 440.51 268.45 436.6 263.86 436.08 262.15 434.04 261.13 431.32 262.66 429.96 261.13 413.11 265.39 407.15 265.05 397.79 266.92 396.25 266.07 379.4 268.45 376.51 268.45 368.85 267.09 361.19 271.51 355.57 271.51 345.7 276.28 350.13 273.9 373.45 283.43 396.08 286.15 400.51 293.69 405.11 293.69 410.89 299.43 419.91 300.45 436.76 300.28 448.85 297.9 464 293.69 461.96 291.09 451.57 283.26 448.68 279 442.38"/><path id="SLV1346LALIBERTAD" class="cls-1" d="M365,522.89l6-11.06-6-3.41,1.7-3.06H374l5.62-7.66,4.77-18.89L365,481.53v-15l-14.81,1v14L341,477.28l-12.59-.34-.85-4.77s3.06-5.28,2.89-4.77-1.36-4.36-1.36-4.36l-6-3.64-5.28,1L310,465.7l-6.15-.22L297.9,464l-4.22-2-2.59-10.39-7.83-2.89-4.26-6.3h-5.1l-4.34-1.87-1.11-3.92-4.59-.51-.69,6.3-3.4-3.06v-4.09l-3.4-3.23h-3.92l-5.62,4.25-2.38-1-1-2h-3.91v8.17l-7.83-2.55-.17-6.13-2.39-.34-2.72,1.7-4.94-3.23-4.59-.17-7,4.59-8.34-12.42L194,424.17l5.5,10.21v14l-3.24,4.08,3.24,4.43-3.41,2.89V463l6.81,2.66,5.28,4.94,5.1-3.07,11.41,2.56,3.91,3.57,4.43-5.79,20.08,1,42.21,18Z"/></g></g></svg>